<svg id="Capa_1" enable-background="new 0 0 512 512" height="512" viewBox="0 0 512 512" width="512" xmlns="http://www.w3.org/2000/svg" xmlns:xlink="http://www.w3.org/1999/xlink"><linearGradient id="SVGID_1_" gradientUnits="userSpaceOnUse" x1="256" x2="256" y1="512" y2="0"><stop offset="0" stop-color="#5558ff"/><stop offset="1" stop-color="#00c0ff"/></linearGradient><g><g><path d="m255.943 152c8.284 0 15-6.716 15-15 0-8.286-6.716-15-15-15s-15 6.714-15 15c0 8.284 6.716 15 15 15zm139.336 233.276-70.82-218.04c4.107-9.269 6.484-19.464 6.484-30.236 0-36.216-25.801-66.513-60-73.482v-48.518c0-8.291-6.709-15-15-15s-15 6.709-15 15v48.518c-34.199 6.969-60 37.266-60 73.482 0 10.774 2.377 20.967 6.484 30.236l-70.585 217.41c-13.213 35.273 1.992 74.355 34.102 91.934v20.42c0 8.291 6.709 15 15 15s15-6.709 15-15v-27.568l20.052-60.148c14.908 5.676 28.363 9.619 39.948 11.426v16.29c0 8.291 6.709 15 15 15s15-6.709 15-15v-16.291c11.585-1.807 25.04-5.75 39.948-11.426l20.052 60.148v27.569c0 8.291 6.709 15 15 15s15-6.709 15-15v-20.42c32.108-17.578 47.343-56.601 34.335-91.304zm-139.336-293.276c24.814 0 45 20.186 45 45s-20.186 45-45 45-45-20.186-45-45 20.186-45 45-45zm-98.408 352.808c-13.74-11.968-19.307-31.758-12.393-50.273l64.603-198.902c7.736 6.11 16.619 10.677 26.376 13.372zm113.408-54.714v-13.094c0-8.291-6.709-15-15-15s-15 6.709-15 15v13.094c-8.811-1.78-19.078-4.907-30.458-9.28l45.458-136.359 45.458 136.359c-11.38 4.373-21.647 7.5-30.458 9.28zm83.408 54.728-78.587-235.818c9.758-2.695 18.642-7.262 26.38-13.374l64.834 199.534c6.739 18.032 1.114 37.705-12.627 49.658z" fill="url(#SVGID_1_)"/></g></g></svg>