<svg id="Capa_1" enable-background="new 0 0 512.012 512.012" height="512" viewBox="0 0 512.012 512.012" width="512" xmlns="http://www.w3.org/2000/svg" xmlns:xlink="http://www.w3.org/1999/xlink"><linearGradient id="SVGID_1_" gradientUnits="userSpaceOnUse" x1="256.006" x2="256.006" y1="511.912" y2=".1"><stop offset="0" stop-color="#00b59c"/><stop offset="1" stop-color="#9cffac"/></linearGradient><g><g><path d="m426.305 63.808c-5.858 5.858-5.858 15.355 0 21.213 5.859 5.858 15.355 5.858 21.215 0 5.858-5.858 5.858-15.355 0-21.213-5.86-5.857-15.356-5.857-21.215 0zm63.576-42.244c-28.301-28.652-77.725-28.55-105.85-.103-15.586 15.498-28.154 38.818-41.455 63.516-31.699 58.828-49.219 81.167-75.352 68.115l-57.012-28.491c-5.801-2.886-12.773-1.729-17.314 2.813l-63.545 63.658c-.009.009-.02.009-.029.018s-.011.02-.02.029l-124.909 125.413c-5.859 5.859-5.859 15.337 0 21.196l169.775 169.79c5.86 5.86 15.355 5.856 21.211 0l188.533-189.104c4.57-4.57 5.684-11.543 2.813-17.314l-28.506-57.026c-13.096-26.045 9.375-43.521 68.145-75.264 24.697-13.33 48.018-25.928 63.398-41.411 29.804-29.469 29.485-76.831.117-105.835zm-305.106 454.123-21.394-21.396 53.064-53.077c5.859-5.859 5.859-15.352 0-21.211s-15.352-5.859-21.211 0l-53.064 53.075-21.215-21.218 53.068-53.068c5.859-5.859 5.859-15.352 0-21.211s-15.352-5.859-21.211 0l-53.068 53.068-21.209-21.213 53.066-53.066c5.859-5.859 5.859-15.352 0-21.211s-15.352-5.859-21.211 0l-53.066 53.066-21.114-21.118 103.728-104.194 148.587 148.577zm283.807-369.543c-12.363 12.451-34.805 24.565-56.484 36.27-48.545 26.221-108.984 58.857-80.713 115.107l23.672 47.329-45.337 45.41-148.59-148.575 45.333-45.414 47.344 23.657c56.309 28.11 89.033-32.168 115.195-80.728 11.66-21.68 23.73-44.092 36.27-56.543 16.992-17.197 46.172-17.329 63.398.132 8.584 8.482 13.33 19.703 13.33 31.627s-4.746 23.144-13.418 31.728z" fill="url(#SVGID_1_)"/></g></g></svg>