<svg id="Capa_1" enable-background="new 0 0 512 512" height="512" viewBox="0 0 512 512" width="512" xmlns="http://www.w3.org/2000/svg" xmlns:xlink="http://www.w3.org/1999/xlink"><linearGradient id="SVGID_1_" gradientUnits="userSpaceOnUse" x1="256" x2="256" y1="512" y2="0"><stop offset="0" stop-color="#5558ff"/><stop offset="1" stop-color="#00c0ff"/></linearGradient><g><g><path d="m497 91h-76v-76c0-8.291-6.709-15-15-15h-300c-8.291 0-15 6.709-15 15v76h-76c-8.291 0-15 6.709-15 15v180c0 8.291 6.709 15 15 15h76v196c0 8.291 6.709 15 15 15h300c8.291 0 15-6.709 15-15v-196h76c8.291 0 15-6.709 15-15v-180c0-8.291-6.709-15-15-15zm-376-61h270v61h-270zm270 452h-270v-39.789l45-45 49.395 49.395c5.859 5.859 15.352 5.859 21.211 0l79.394-79.395 75 75zm0-82.211-64.395-64.395c-5.859-5.859-15.352-5.859-21.211 0l-79.394 79.395-49.395-49.395c-5.859-5.859-15.352-5.859-21.211 0l-34.394 34.395v-158.789h270zm91-128.789h-61v-30h15c8.291 0 15-6.709 15-15s-6.709-15-15-15h-360c-8.291 0-15 6.709-15 15s6.709 15 15 15h15v30h-61v-150h452zm-46-90c8.284 0 15-6.716 15-15 0-8.286-6.716-15-15-15s-15 6.714-15 15c0 8.284 6.716 15 15 15zm-60 0c8.284 0 15-6.716 15-15 0-8.286-6.716-15-15-15s-15 6.714-15 15c0 8.284 6.716 15 15 15zm-150 180c24.814 0 45-20.186 45-45s-20.186-45-45-45-45 20.186-45 45 20.186 45 45 45zm0-60c8.262 0 15 6.724 15 15s-6.738 15-15 15-15-6.724-15-15 6.738-15 15-15z" fill="url(#SVGID_1_)"/></g></g></svg>