<svg id="Capa_1" enable-background="new 0 0 512 512" height="512" viewBox="0 0 512 512" width="512" xmlns="http://www.w3.org/2000/svg" xmlns:xlink="http://www.w3.org/1999/xlink"><linearGradient id="SVGID_1_" gradientUnits="userSpaceOnUse" x1="256" x2="256" y1="511.994" y2=".006"><stop offset="0" stop-color="#fd3a84"/><stop offset="1" stop-color="#ffa68d"/></linearGradient><g><g><path d="m135 419.994c8.284 0 15-6.716 15-15 0-8.286-6.716-15-15-15s-15 6.714-15 15c0 8.283 6.716 15 15 15zm60 0c8.284 0 15-6.716 15-15 0-8.286-6.716-15-15-15s-15 6.714-15 15c0 8.283 6.716 15 15 15zm60 0c8.284 0 15-6.716 15-15 0-8.286-6.716-15-15-15s-15 6.714-15 15c0 8.283 6.716 15 15 15zm253.104-85.093-300-330c-5.596-6.123-15.059-6.548-21.182-1.011-6.152 5.581-6.592 15.059-1.025 21.196l277.189 304.907h-448.086c-8.291 0-15 6.709-15 15 0 69.307 52.685 125.911 120 133.484v18.516c0 8.291 6.709 15 15 15s15-6.709 15-15v-17h272v17c0 8.291 6.709 15 15 15s15-6.709 15-15v-17h45c8.291 0 15-6.709 15-15v-120c0-4.729-3.826-10.014-3.896-10.092zm-26.104 115.093h-347c-52.793 0-96.621-39.185-103.945-90h450.945zm-287-150c8.291 0 15-6.709 15-15v-60c0-8.291-6.709-15-15-15s-15 6.709-15 15v60c0 8.291 6.709 15 15 15zm-70.605-4.395c2.93 2.93 6.768 4.395 10.605 4.395s7.676-1.465 10.605-4.395c5.859-5.859 5.859-15.352 0-21.211l-30-30c-5.859-5.859-15.352-5.859-21.211 0s-5.859 15.352 0 21.211zm141.21 0 30-30c5.859-5.859 5.859-15.352 0-21.211s-15.352-5.859-21.211 0l-30 30c-5.859 5.859-5.859 15.352 0 21.211 2.93 2.93 6.768 4.395 10.605 4.395s7.677-1.465 10.606-4.395z" fill="url(#SVGID_1_)"/></g></g></svg>