<svg id="Capa_1" enable-background="new 0 0 512.011 512.011" height="512" viewBox="0 0 512.011 512.011" width="512" xmlns="http://www.w3.org/2000/svg" xmlns:xlink="http://www.w3.org/1999/xlink"><linearGradient id="SVGID_1_" gradientUnits="userSpaceOnUse" x1="76.789" x2="435.208" y1="435.221" y2="76.802"><stop offset="0" stop-color="#a93aff"/><stop offset="1" stop-color="#ff81ff"/></linearGradient><g><g><path d="m498.844 140.453-127.266-127.28c-17.637-17.578-46.143-17.549-63.662 0l-294.771 294.786c-17.52 17.534-17.52 46.069 0 63.604v.015l127.295 127.28c17.499 17.528 46.114 17.548 63.633 0l294.771-294.771c17.549-17.55 17.549-46.085 0-63.634zm-315.982 337.193c-5.859 5.859-15.352 5.83-21.211 0l-127.295-127.265c-5.83-5.859-5.83-15.381 0-21.226l79.344-79.344 148.484 148.513zm100.533-100.533-148.484-148.513 158.789-158.789 148.484 148.513zm194.238-194.238-14.238 14.238-148.484-148.513 14.216-14.216c5.83-5.83 15.352-5.889 21.24 0l127.266 127.28c5.859 5.845 5.859 15.366 0 21.211zm-249.082 40.591c0 33.091 26.924 60 60 60s60-26.909 60-60-26.924-60-60-60-60 26.909-60 60zm90 0c0 16.538-13.447 30-30 30s-30-13.462-30-30 13.447-30 30-30 30 13.461 30 30z" fill="url(#SVGID_1_)"/></g></g></svg>