<svg id="Capa_1" enable-background="new 0 0 512 512" height="512" viewBox="0 0 512 512" width="512" xmlns="http://www.w3.org/2000/svg" xmlns:xlink="http://www.w3.org/1999/xlink"><linearGradient id="SVGID_1_" gradientUnits="userSpaceOnUse" x1="256" x2="256" y1="512" y2="0"><stop offset="0" stop-color="#fd5900"/><stop offset="1" stop-color="#ffde00"/></linearGradient><g><g><path d="m497 361h-46v-278.789l56.605-56.605c5.859-5.859 5.859-15.352 0-21.211s-15.352-5.859-21.211 0l-56.605 56.605h-278.789v-46c0-8.291-6.709-15-15-15h-60c-8.291 0-15 6.709-15 15v46h-46c-8.291 0-15 6.709-15 15v60c0 8.291 6.709 15 15 15h46v285c0 8.291 6.709 15 15 15h285v46c0 8.291 6.709 15 15 15h60c8.291 0 15-6.709 15-15v-46h46c8.291 0 15-6.709 15-15v-60c0-8.291-6.709-15-15-15zm-406-331h30v31h-30zm-61 91v-30h391v270h-30v-225c0-8.272-6.79-15-15-15zm331 51.211v188.789h-188.789zm-210 167.578v-188.789h188.789zm270 142.211h-30v-31h30zm61-61h-391v-270h30v225c0 8.271 6.79 15 15 15h346z" fill="url(#SVGID_1_)"/></g></g></svg>