<svg id="Capa_1" enable-background="new 0 0 511.999 511.999" height="512" viewBox="0 0 511.999 511.999" width="512" xmlns="http://www.w3.org/2000/svg" xmlns:xlink="http://www.w3.org/1999/xlink"><linearGradient id="SVGID_1_" gradientUnits="userSpaceOnUse" x1="-6.52" x2="458.701" y1="465.419" y2=".197"><stop offset="0" stop-color="#5558ff"/><stop offset="1" stop-color="#00c0ff"/></linearGradient><g><g><path d="m341.296 138.828-165 165c-5.859 5.859-5.859 15.352 0 21.211s15.351 5.86 21.211 0l165-165c5.859-5.859 5.859-15.352 0-21.211s-15.351-5.86-21.211 0zm160.371-70.459c-1.787-21.973-13.184-42.041-31.289-55.078-29.297-21.108-71.777-16.655-98.789 10.386l-10.25 10.25c-2.179-4.565-4.993-8.846-8.676-12.521-8.496-8.496-19.805-13.184-31.816-13.184-.029 0-.029 0-.029 0-12.042.015-23.32 4.688-31.787 13.184l-106.084 106.054c-5.859 5.859-5.859 15.352 0 21.211s15.351 5.86 21.211 0l106.083-106.069c5.842-5.812 15.295-5.886 21.211.029 5.776 5.717 5.942 15.201.029 21.152l-233.378 233.38c-8.496 8.496-13.184 19.805-13.184 31.831 0 6.806 1.657 13.312 4.506 19.283l-74.939 74.485c-4.014 4.014-5.42 9.961-3.633 15.352l21.211 63.633c3.516 10.547 16.958 13.746 24.844 5.859l96.368-95.914c6.072 2.862 12.486 4.695 19.065 4.695 11.514 0 23.057-4.38 31.816-13.154l275.772-275.773c15.586-15.571 23.496-37.119 21.738-59.091zm-448.801 400.858-10.606-31.802 66.45-66.007 21.209 21.209zm130.081-87.206c-5.859 5.859-15.352 5.859-21.211 0l-42.422-42.422c-5.85-5.85-5.88-15.331 0-21.211 6.526-6.526 223.368-223.381 243.948-243.962l63.64 63.64zm265.166-265.166-63.64-63.64c3.313-3.313 34.754-39.778 68.386-15.579 1.349.972 44.383 30.089-4.746 79.219z" fill="url(#SVGID_1_)"/></g></g></svg>