<svg id="Capa_1" enable-background="new 0 0 512 512" height="512" viewBox="0 0 512 512" width="512" xmlns="http://www.w3.org/2000/svg" xmlns:xlink="http://www.w3.org/1999/xlink"><linearGradient id="SVGID_1_" gradientUnits="userSpaceOnUse" x1="256" x2="256" y1="512" y2="0"><stop offset="0" stop-color="#00b59c"/><stop offset="1" stop-color="#9cffac"/></linearGradient><g><g><path d="m421 61.518v-46.518c0-8.291-6.709-15-15-15h-360c-8.291 0-15 6.709-15 15v120c0 8.291 6.709 15 15 15h360c8.291 0 15-6.709 15-15v-42.237c17.422 6.213 30 22.707 30 42.237 0 24.814-20.186 45-45 45h-150c-24.814 0-45 20.186-45 45v45h-15c-8.291 0-15 6.709-15 15v212c0 8.291 6.709 15 15 15h60c8.291 0 15-6.709 15-15v-212c0-8.291-6.709-15-15-15h-15v-45c0-8.276 6.738-15 15-15h150c41.367 0 75-33.647 75-75 0-36.216-25.801-66.513-60-73.482zm-30 58.482h-330v-90h330zm-150 362h-30v-182h30z" fill="url(#SVGID_1_)"/></g></g></svg>