<svg id="Capa_1" enable-background="new 0 0 512 512" height="512" viewBox="0 0 512 512" width="512" xmlns="http://www.w3.org/2000/svg" xmlns:xlink="http://www.w3.org/1999/xlink"><linearGradient id="SVGID_1_" gradientUnits="userSpaceOnUse" x1="256" x2="256" y1="512" y2="0"><stop offset="0" stop-color="#5558ff"/><stop offset="1" stop-color="#00c0ff"/></linearGradient><g><g><path d="m496.719 150.985c-4.827-14.134-13.564-26.221-25.133-35.127l20.504-41.763c10.928-22.266 1.699-49.292-20.566-60.22-22.562-11.068-49.373-1.547-60.234 20.566l-26.442 53.846c-.004.007-.009.009-.013.016s-.002.013-.005.02l-73.764 150.211v-223.534c0-8.291-6.709-15-15-15h-90c-8.291 0-15 6.709-15 15v221.662l-81.91-148.222c-.004-.005-.002-.013-.005-.018s-.007-.009-.011-.015l-14.491-26.22c-1.113-2.036-2.695-3.794-4.629-5.112l-55.284-38.013c-4.688-3.208-10.752-3.53-15.762-.762-4.951 2.739-7.969 8.071-7.734 13.74l2.754 67.031c.117 2.329.732 4.6 1.875 6.636l85.67 155.01 29.643 238.144c.938 7.5 7.324 13.14 14.883 13.14h210c7.559 0 13.945-5.64 14.883-13.14l29.685-238.475 57.094-116.296c4.601 4.72 8.405 10.161 10.604 16.578 3.867 11.382 3.076 23.584-2.197 34.365-3.662 7.441-.615 16.421 6.826 20.083 7.524 3.659 16.432.555 20.068-6.841 8.847-17.988 10.165-38.32 3.691-57.29zm-275.654-120.985h60v31h-15c-8.291 0-15 6.709-15 15s6.709 15 15 15h15v30h-15c-8.291 0-15 6.709-15 15s6.709 15 15 15h15v30h-15c-8.291 0-15 6.709-15 15s6.709 15 15 15h15v30h-60zm-177.217 64.296-1.377-33.516 27.627 19.014 5.541 10.025-26.245 14.513zm81.061 146.704-61.006-110.405 26.248-14.517 69.046 124.922zm217.913 241h-183.515l-26.25-211h236.016zm33.888-241h-33.413l61.879-126.01 26.913 13.209zm88.427-180.117-19.827 40.382-26.909-13.206 19.841-40.404c3.66-7.473 12.704-10.493 20.039-6.855 7.442 3.647 10.518 12.656 6.856 20.083z" fill="url(#SVGID_1_)"/></g></g></svg>