<svg id="Capa_1" enable-background="new 0 0 512.017 512.017" height="512" viewBox="0 0 512.017 512.017" width="512" xmlns="http://www.w3.org/2000/svg" xmlns:xlink="http://www.w3.org/1999/xlink"><linearGradient id="SVGID_1_" gradientUnits="userSpaceOnUse" x1="4.398" x2="490.031" y1="507.596" y2="21.963"><stop offset="0" stop-color="#fd5900"/><stop offset="1" stop-color="#ffde00"/></linearGradient><g><g><path d="m490.027 21.959c-29.238-29.238-76.816-29.238-106.055 0l-318.193 318.194c-1.641 1.641-2.9 3.647-3.633 5.859l-41.301 123.918-16.45 16.451c-5.859 5.859-5.859 15.352 0 21.211s15.351 5.859 21.211 0l16.443-16.443 123.926-41.309c2.197-.732 4.219-1.978 5.859-3.618l275.733-275.746c.011-.011.027-.015.038-.026s.015-.027.026-.038l42.396-42.398c29.297-29.236 29.343-76.772 0-106.055zm-137.871 74.24 21.209 21.211-233.347 233.348-21.204-21.204zm-199.043 326.307-95.42 31.816 31.816-95.464 8.093-8.093 63.625 63.625zm29.326-29.326-21.211-21.211 233.346-233.346 21.209 21.213zm286.377-286.377-31.822 31.822-31.796-31.8c-.007-.007-.007-.015-.015-.022s-.015-.007-.022-.015l-31.794-31.8 31.816-31.818c17.52-17.549 46.113-17.549 63.633 0 17.566 17.566 17.616 46.018 0 63.633z" fill="url(#SVGID_1_)"/></g></g></svg>