<svg id="Capa_1" enable-background="new 0 0 512.027 512.027" height="512" viewBox="0 0 512.027 512.027" width="512" xmlns="http://www.w3.org/2000/svg" xmlns:xlink="http://www.w3.org/1999/xlink"><linearGradient id="SVGID_1_" gradientUnits="userSpaceOnUse" x1="25.605" x2="468.478" y1="486.421" y2="43.548"><stop offset="0" stop-color="#fd3a84"/><stop offset="1" stop-color="#ffa68d"/></linearGradient><g><g><path d="m500.909 185.725-27.094-7.262-46.939-37.723 21.777-56.169 19.825-19.812c5.859-5.845 5.859-15.352 0-21.211s-15.352-5.859-21.211 0l-19.863 19.85-56.134 21.766-37.678-46.88-7.264-27.153c-2.168-7.954-10.254-12.788-18.369-10.605-7.998 2.139-12.773 10.356-10.635 18.369l7.249 27.098-9.212 59.518-59.469 9.197-27.103-7.264c-8.027-2.124-16.23 2.607-18.398 10.605-2.139 7.998 2.607 16.23 10.605 18.369l27.094 7.262 46.939 37.723-21.751 56.118-78.984 79.008-10.622-10.615c-5.859-5.859-15.352-5.859-21.211 0l-138.066 138.086c-5.859 5.859-5.859 15.352 0 21.211l42.422 42.422c5.859 5.859 15.351 5.859 21.211 0l138.097-138.084c5.86-5.86 5.856-15.355 0-21.211l-10.611-10.604 78.924-78.948 56.169-21.791 37.712 46.891 7.258 27.127c2.187 8.059 10.504 12.75 18.369 10.605 7.998-2.139 12.773-10.356 10.635-18.369l-7.249-27.098 9.212-59.518 59.469-9.197 27.103 7.264c8.03 2.141 16.235-2.616 18.398-10.605 2.139-7.999-2.607-16.231-10.605-18.37zm-443.487 290.091-21.211-21.211 116.856-116.874 21.24 21.211zm333.682-287.147c-6.475.996-11.543 6.064-12.539 12.524l-6.182 39.888-25.283-31.45c-4.053-5.056-10.943-6.948-17.109-4.585l-37.617 14.59 14.59-37.617c2.373-6.094.527-13.008-4.57-17.109l-31.436-25.269 39.844-6.167c6.475-.996 11.543-6.064 12.539-12.524l6.152-39.873 25.283 31.436c4.102 5.112 11.045 6.943 17.109 4.6l37.646-14.604-14.59 37.617c-2.373 6.094-.527 13.008 4.57 17.109l31.436 25.269z" fill="url(#SVGID_1_)"/></g></g></svg>