<svg id="Capa_1" enable-background="new 0 0 512 512" height="512" viewBox="0 0 512 512" width="512" xmlns="http://www.w3.org/2000/svg" xmlns:xlink="http://www.w3.org/1999/xlink"><linearGradient id="SVGID_1_" gradientUnits="userSpaceOnUse" x1="256" x2="256" y1="512" y2="0"><stop offset="0" stop-color="#5558ff"/><stop offset="1" stop-color="#00c0ff"/></linearGradient><g><g><path d="m211 60h90c8.291 0 15-6.709 15-15s-6.709-15-15-15h-90c-8.291 0-15 6.709-15 15s6.709 15 15 15zm90 392h-90c-8.291 0-15 6.709-15 15s6.709 15 15 15h90c8.291 0 15-6.709 15-15s-6.709-15-15-15zm-256-256c-8.291 0-15 6.709-15 15v90c0 8.291 6.709 15 15 15s15-6.709 15-15v-90c0-8.291-6.709-15-15-15zm-15-108.763v62.763c0 8.291 6.709 15 15 15s15-6.709 15-15v-62.763c12.708-4.532 22.705-14.529 27.237-27.237h62.763c8.291 0 15-6.709 15-15s-6.709-15-15-15h-62.763c-6.213-17.422-22.707-30-42.237-30-24.814 0-45 20.186-45 45 0 19.53 12.578 36.024 30 42.237zm15-57.237c8.262 0 15 6.724 15 15s-6.738 15-15 15-15-6.724-15-15 6.738-15 15-15zm317 30h62.763c4.532 12.708 14.529 22.705 27.237 27.237v62.763c0 8.291 6.709 15 15 15s15-6.709 15-15v-62.763c17.422-6.213 30-22.707 30-42.237 0-24.814-20.186-45-45-45-19.53 0-36.024 12.578-42.237 30h-62.763c-8.291 0-15 6.709-15 15s6.709 15 15 15zm105-30c8.262 0 15 6.724 15 15s-6.738 15-15 15-15-6.724-15-15 6.738-15 15-15zm15 394.763v-62.763c0-8.291-6.709-15-15-15s-15 6.709-15 15v62.763c-12.708 4.532-22.705 14.529-27.237 27.237h-62.763c-8.291 0-15 6.709-15 15s6.709 15 15 15h62.763c6.213 17.422 22.707 30 42.237 30 24.814 0 45-20.186 45-45 0-19.53-12.578-36.024-30-42.237zm-15 57.237c-8.262 0-15-6.724-15-15s6.738-15 15-15 15 6.724 15 15-6.738 15-15 15zm-317-30h-62.763c-4.532-12.708-14.529-22.705-27.237-27.237v-62.763c0-8.291-6.709-15-15-15s-15 6.709-15 15v62.763c-17.422 6.213-30 22.707-30 42.237 0 24.814 20.186 45 45 45 19.53 0 36.024-12.578 42.237-30h62.763c8.291 0 15-6.709 15-15s-6.709-15-15-15zm-105 30c-8.262 0-15-6.724-15-15s6.738-15 15-15 15 6.724 15 15-6.738 15-15 15zm422-286c-8.291 0-15 6.709-15 15v90c0 8.291 6.709 15 15 15s15-6.709 15-15v-90c0-8.291-6.709-15-15-15zm-361-105c-8.291 0-15 6.709-15 15v300c0 8.291 6.709 15 15 15h300c8.291 0 15-6.709 15-15v-300c0-8.291-6.709-15-15-15zm285 300h-270v-38.789l45-45 49.395 49.395c5.859 5.859 15.352 5.859 21.211 0l79.394-79.395 75 75zm0-81.211-64.395-64.395c-5.859-5.859-15.352-5.859-21.211 0l-79.394 79.395-49.395-49.395c-5.859-5.859-15.352-5.859-21.211 0l-34.394 34.395v-188.789h270zm-165-38.789c24.814 0 45-20.186 45-45s-20.186-45-45-45-45 20.186-45 45 20.186 45 45 45zm0-60c8.262 0 15 6.724 15 15s-6.738 15-15 15-15-6.724-15-15 6.738-15 15-15z" fill="url(#SVGID_1_)"/></g></g></svg>