<svg id="Capa_1" enable-background="new 0 0 511.999 511.999" height="512" viewBox="0 0 511.999 511.999" width="512" xmlns="http://www.w3.org/2000/svg" xmlns:xlink="http://www.w3.org/1999/xlink"><linearGradient id="SVGID_1_" gradientUnits="userSpaceOnUse" x1="256" x2="256" y1="511.999" y2="0"><stop offset="0" stop-color="#fd5900"/><stop offset="1" stop-color="#ffde00"/></linearGradient><g><g><path d="m406 62h-135v-47c0-8.291-6.709-15-15-15s-15 6.709-15 15v47h-135c-8.291 0-15 6.709-15 15v300c0 8.291 6.709 15 15 15h65.728l-49.146 98.291c-3.691 7.412-.703 16.421 6.709 20.127 7.58 3.739 16.469.586 20.127-6.709l25.854-51.709h161.455l25.854 51.709c3.654 7.288 12.542 10.45 20.127 6.709 7.412-3.706 10.4-12.715 6.709-20.127l-49.145-98.291h65.728c8.291 0 15-6.709 15-15v-300c0-8.291-6.709-15-15-15zm-215.728 360 15-30h101.455l15 30zm200.728-60h-270v-38.789l45-45 49.395 49.395c5.859 5.859 15.352 5.859 21.211 0l79.394-79.395 75 75zm0-81.211-64.395-64.395c-5.859-5.859-15.352-5.859-21.211 0l-79.394 79.395-49.395-49.395c-5.859-5.859-15.352-5.859-21.211 0l-34.394 34.395v-188.789h270zm-165-38.789c24.814 0 45-20.186 45-45s-20.186-45-45-45-45 20.186-45 45 20.185 45 45 45zm0-60c8.262 0 15 6.724 15 15s-6.738 15-15 15-15-6.724-15-15 6.738-15 15-15z" fill="url(#SVGID_1_)"/></g></g></svg>