<svg id="Capa_1" enable-background="new 0 0 512 512" height="512" viewBox="0 0 512 512" width="512" xmlns="http://www.w3.org/2000/svg" xmlns:xlink="http://www.w3.org/1999/xlink"><linearGradient id="SVGID_1_" gradientUnits="userSpaceOnUse" x1="256" x2="256" y1="512" y2="0"><stop offset="0" stop-color="#a93aff"/><stop offset="1" stop-color="#ff81ff"/></linearGradient><g><g><path d="m497 122h-482c-8.291 0-15 6.709-15 15v360c0 8.291 6.709 15 15 15h482c8.291 0 15-6.709 15-15v-360c0-8.291-6.709-15-15-15zm-406 360h-61v-90h15c8.291 0 15-6.709 15-15s-6.709-15-15-15h-15v-30h15c8.291 0 15-6.709 15-15s-6.709-15-15-15h-15v-30h15c8.291 0 15-6.709 15-15s-6.709-15-15-15h-15v-90h61zm391 0h-361v-330h361zm-473.709-423.582c41.338 20.654 87.598 31.582 133.799 31.582h324.91c24.814 0 45-20.186 45-45s-20.186-45-45-45h-324.91c-46.201 0-92.461 10.928-133.799 31.582-5.068 2.549-8.291 7.734-8.291 13.418s3.223 10.869 8.291 13.418zm133.799-28.418h324.91c8.262 0 15 6.724 15 15s-6.738 15-15 15h-324.91c-30.059 0-60.117-5.142-88.535-15 28.418-9.858 58.476-15 88.535-15zm23.91 422h270c8.291 0 15-6.709 15-15v-240c0-8.291-6.709-15-15-15h-270c-8.291 0-15 6.709-15 15v240c0 8.291 6.709 15 15 15zm15-240h240v210h-240z" fill="url(#SVGID_1_)"/></g></g></svg>