<svg id="Capa_1" enable-background="new 0 0 512 512" height="512" viewBox="0 0 512 512" width="512" xmlns="http://www.w3.org/2000/svg" xmlns:xlink="http://www.w3.org/1999/xlink"><linearGradient id="SVGID_1_" gradientUnits="userSpaceOnUse" x1="256" x2="256" y1="497" y2="15"><stop offset="0" stop-color="#fd3a84"/><stop offset="1" stop-color="#ffa68d"/></linearGradient><g><path d="m512 180c0-90.981-74.019-165-165-165-33.609 0-64.897 10.109-91 27.434-26.103-17.325-57.391-27.434-91-27.434-90.981 0-165 74.019-165 165 0 64.415 37.108 120.317 91.064 147.478-.04 1.502-.064 3.01-.064 4.522 0 90.981 74.019 165 165 165s165-74.019 165-165c0-1.512-.024-3.02-.064-4.522 53.956-27.161 91.064-83.063 91.064-147.478zm-482 0c0-74.439 60.561-135 135-135 24.093 0 46.728 6.351 66.33 17.456-30.429 29.949-49.33 71.578-49.33 117.544 0 1.512.024 3.02.064 4.522-43.438 21.865-75.951 62.359-86.977 110.927-38.989-23.698-65.087-66.583-65.087-115.449zm269.815-7.084c-13.959-3.849-28.649-5.916-43.815-5.916s-29.856 2.067-43.815 5.916c1.9-36.57 18.421-69.333 43.815-92.547 25.393 23.214 41.915 55.977 43.815 92.547zm-43.815 106.714c-21.486-19.642-36.621-46.121-41.92-75.959 13.203-4.323 27.291-6.671 41.92-6.671s28.717 2.348 41.92 6.671c-5.299 29.839-20.434 56.318-41.92 75.959zm69.913-63.079c32.547 19.783 56.109 52.937 63.007 91.778-13.202 4.323-27.291 6.671-41.92 6.671-24.093 0-46.728-6.351-66.33-17.456 22.116-21.767 38.139-49.703 45.243-80.993zm-94.583 80.993c-19.602 11.105-42.237 17.456-66.33 17.456-14.629 0-28.717-2.348-41.92-6.671 6.898-38.841 30.46-71.995 63.007-91.778 7.104 31.29 23.127 59.226 45.243 80.993zm24.67 169.456c-72.063 0-131.118-56.757-134.815-127.916 13.959 3.849 28.649 5.916 43.815 5.916 33.609 0 64.897-10.109 91-27.435 26.103 17.326 57.391 27.435 91 27.435 15.166 0 29.856-2.067 43.815-5.916-3.697 71.159-62.752 127.916-134.815 127.916zm160.913-171.551c-11.026-48.569-43.54-89.062-86.977-110.927.041-1.503.064-3.01.064-4.522 0-45.966-18.901-87.595-49.33-117.544 19.602-11.105 42.237-17.456 66.33-17.456 74.439 0 135 60.561 135 135 0 48.866-26.098 91.751-65.087 115.449z" fill="url(#SVGID_1_)"/></g></svg>