<svg id="Capa_1" enable-background="new 0 0 512 512" height="512" viewBox="0 0 512 512" width="512" xmlns="http://www.w3.org/2000/svg" xmlns:xlink="http://www.w3.org/1999/xlink"><linearGradient id="SVGID_1_" gradientUnits="userSpaceOnUse" x1="256" x2="256" y1="512" y2="0"><stop offset="0" stop-color="#5558ff"/><stop offset="1" stop-color="#00c0ff"/></linearGradient><g><g><path d="m497 0h-482c-8.291 0-15 6.709-15 15v392c0 8.291 6.709 15 15 15h190.179l-19.999 60h-19.18c-8.291 0-15 6.709-15 15s6.709 15 15 15h180c8.291 0 15-6.709 15-15s-6.709-15-15-15h-19.18l-19.999-60h190.179c8.291 0 15-6.709 15-15v-392c0-8.291-6.709-15-15-15zm-280.179 482 19.999-60h38.361l19.999 60zm265.179-90h-452v-362h452zm-256-181c24.814 0 45-20.186 45-45s-20.186-45-45-45-45 20.186-45 45 20.186 45 45 45zm0-60c8.262 0 15 6.724 15 15s-6.738 15-15 15-15-6.724-15-15 6.738-15 15-15zm-120 210h300c8.291 0 15-6.709 15-15v-270c0-8.291-6.709-15-15-15h-300c-8.291 0-15 6.709-15 15v270c0 8.291 6.709 15 15 15zm15-270h270v158.789l-64.395-64.395c-5.859-5.859-15.352-5.859-21.211 0l-79.394 79.395-49.395-49.395c-5.859-5.859-15.352-5.859-21.211 0l-34.394 34.395zm0 201.211 45-45 49.395 49.395c5.859 5.859 15.352 5.859 21.211 0l79.394-79.395 75 75v38.789h-270z" fill="url(#SVGID_1_)"/></g></g></svg>