<svg id="Capa_1" enable-background="new 0 0 512 512" height="512" viewBox="0 0 512 512" width="512" xmlns="http://www.w3.org/2000/svg" xmlns:xlink="http://www.w3.org/1999/xlink"><linearGradient id="SVGID_1_" gradientUnits="userSpaceOnUse" x1="256" x2="256" y1="512" y2="0"><stop offset="0" stop-color="#fd3a84"/><stop offset="1" stop-color="#ffa68d"/></linearGradient><g><g><path d="m436 120h-16.516c-7.573-67.315-64.177-120-133.484-120h-60c-69.307 0-125.911 52.685-133.484 120h-16.516c-8.723 0-15.683 7.443-14.941 16.245l30 362c.644 7.778 7.148 13.755 14.941 13.755h300c7.793 0 14.297-5.977 14.941-13.755l30-362c.741-8.797-6.213-16.245-14.941-16.245zm-210-90h60c52.754 0 96.127 39.25 103.484 90h-266.968c7.357-50.75 50.73-90 103.484-90zm166.201 452h-272.402l-22.507-272h38.708c8.262 0 15 6.724 15 15v30c0 24.814 20.186 45 45 45s45-20.186 45-45v-30c0-8.276 6.738-15 15-15s15 6.724 15 15v60c0 24.814 20.186 45 45 45s45-20.186 45-45v-60c0-8.276 6.738-15 15-15h38.708zm25.009-302h-41.21c-24.814 0-45 20.186-45 45v60c0 8.276-6.738 15-15 15s-15-6.724-15-15v-60c0-24.814-20.186-45-45-45s-45 20.186-45 45v30c0 8.276-6.738 15-15 15s-15-6.724-15-15v-30c0-24.814-20.186-45-45-45h-41.21l-2.501-30h327.422z" fill="url(#SVGID_1_)"/></g></g></svg>