<svg id="Capa_1" enable-background="new 0 0 512 512" height="512" viewBox="0 0 512 512" width="512" xmlns="http://www.w3.org/2000/svg" xmlns:xlink="http://www.w3.org/1999/xlink"><linearGradient id="SVGID_1_" gradientUnits="userSpaceOnUse" x1="256" x2="256" y1="511.806" y2=".194"><stop offset="0" stop-color="#fd5900"/><stop offset="1" stop-color="#ffde00"/></linearGradient><g><g><path d="m317 121.806c-61.436 0-120 29.517-156.65 78.97-2.578 3.472-3.545 7.881-2.607 12.114.908 4.219 3.604 7.837 7.354 9.932 28.944 16.054 46.903 46.318 46.903 78.984 0 37.91-23.965 71.895-59.619 84.565-4.131 1.465-7.383 4.629-8.965 8.687-1.582 4.072-1.318 8.613.703 12.466 34.043 64.321 100.283 104.282 172.881 104.282 107.52 0 195-87.48 195-195s-87.48-195-195-195zm0 360c-56.045 0-107.637-28.154-138.135-74.443 38.379-20.611 63.135-61.055 63.135-105.557 0-37.617-17.813-72.832-47.461-95.479 31.113-34.395 75.791-54.521 122.461-54.521 90.967 0 165 74.019 165 165s-74.033 165-165 165zm-229.666-475.525c-5.566-8.115-19.102-8.115-24.668 0-10.459 15.146-62.666 92.534-62.666 128.525 0 24.406 11.893 45.919 30 59.623v272.377c0 24.814 20.186 45 45 45s45-20.186 45-45v-272.377c18.107-13.704 30-35.217 30-59.623 0-35.991-52.207-113.379-62.666-128.525zm2.666 460.525c0 8.276-6.738 15-15 15s-15-6.724-15-15v-258.518c4.849.989 9.862 1.518 15 1.518s10.151-.529 15-1.518zm-15-287c-24.814 0-45-20.186-45-45 0-16.377 23.408-59.136 45-92.886 21.592 33.735 45 76.479 45 92.886 0 24.814-20.186 45-45 45zm242 182c-24.814 0-45 20.186-45 45s20.186 45 45 45 45-20.186 45-45-20.186-45-45-45zm0 60c-8.262 0-15-6.724-15-15s6.738-15 15-15 15 6.724 15 15-6.738 15-15 15zm90-150c-24.814 0-45 20.186-45 45s20.186 45 45 45 45-20.186 45-45-20.186-45-45-45zm0 60c-8.262 0-15-6.724-15-15s6.738-15 15-15 15 6.724 15 15-6.738 15-15 15zm-90-60c24.814 0 45-20.186 45-45s-20.186-45-45-45-45 20.186-45 45 20.186 45 45 45zm0-60c8.262 0 15 6.724 15 15s-6.738 15-15 15-15-6.724-15-15 6.738-15 15-15z" fill="url(#SVGID_1_)"/></g></g></svg>