<svg id="Capa_1" enable-background="new 0 0 512 512" height="512" viewBox="0 0 512 512" width="512" xmlns="http://www.w3.org/2000/svg" xmlns:xlink="http://www.w3.org/1999/xlink"><linearGradient id="SVGID_1_" gradientUnits="userSpaceOnUse" x1="256" x2="256" y1="512" y2="0"><stop offset="0" stop-color="#5558ff"/><stop offset="1" stop-color="#00c0ff"/></linearGradient><g><g><path d="m226 301c24.814 0 45-20.186 45-45s-20.186-45-45-45-45 20.186-45 45 20.186 45 45 45zm0-60c8.262 0 15 6.724 15 15s-6.738 15-15 15-15-6.724-15-15 6.738-15 15-15zm-135-75v270c0 8.291 6.709 15 15 15h300c8.291 0 15-6.709 15-15v-270c0-8.291-6.709-15-15-15h-300c-8.291 0-15 6.709-15 15zm30 15h270v158.789l-64.395-64.395c-5.859-5.859-15.352-5.859-21.211 0l-79.394 79.395-49.395-49.395c-5.859-5.859-15.352-5.859-21.211 0l-34.394 34.395zm0 201.211 45-45 49.395 49.395c5.859 5.859 15.352 5.859 21.211 0l79.394-79.395 75 75v38.789h-270zm359.608-279.157c-.373-2.847-1.752-6.415-4.021-8.677l-89.963-89.964c-2.229-2.235-5.769-3.638-8.681-4.021-.665-.09-1.253-.392-1.943-.392h-330c-8.291 0-15 6.709-15 15v482c0 8.291 6.709 15 15 15h420c8.291 0 15-6.709 15-15v-392c0-.69-.302-1.28-.392-1.946zm-89.608-51.843 38.789 38.789h-38.789zm60 430.789h-390v-452h300v75c0 8.291 6.709 15 15 15h75z" fill="url(#SVGID_1_)"/></g></g></svg>