<svg id="Capa_1" enable-background="new 0 0 512 512" height="512" viewBox="0 0 512 512" width="512" xmlns="http://www.w3.org/2000/svg" xmlns:xlink="http://www.w3.org/1999/xlink"><linearGradient id="SVGID_1_" gradientUnits="userSpaceOnUse" x1="256" x2="256" y1="512" y2="0"><stop offset="0" stop-color="#a93aff"/><stop offset="1" stop-color="#ff81ff"/></linearGradient><g><g><path d="m181 391c41.367 0 75-33.647 75-75s-33.633-75-75-75-75 33.647-75 75 33.633 75 75 75zm0-120c24.814 0 45 20.186 45 45s-20.186 45-45 45-45-20.186-45-45 20.186-45 45-45zm150-91c8.291 0 15-6.709 15-15s-6.709-15-15-15h-46.516c-5.103-35.198-27.49-64.631-58.484-79.468v-55.532c0-8.291-6.709-15-15-15h-60c-8.291 0-15 6.709-15 15v55.532c-30.994 14.837-53.381 44.27-58.484 79.468h-46.516c-8.291 0-15 6.709-15 15s6.709 15 15 15h15v302h-15c-8.291 0-15 6.709-15 15s6.709 15 15 15h300c8.291 0 15-6.709 15-15s-6.709-15-15-15h-15v-302zm-165-150h30v31.516c-4.942-.716-9.864-1.516-15-1.516s-10.058.8-15 1.516zm15 60c36.229 0 66.515 25.809 73.484 60h-146.968c6.969-34.191 37.255-60 73.484-60zm105 392h-210v-302h210zm-15-422h30c8.291 0 15-6.709 15-15s-6.709-15-15-15h-30c-8.291 0-15 6.709-15 15s6.709 15 15 15zm120-30h-30c-8.291 0-15 6.709-15 15s6.709 15 15 15h30c8.291 0 15-6.709 15-15s-6.709-15-15-15zm90 0h-30c-8.291 0-15 6.709-15 15s6.709 15 15 15h30c8.291 0 15-6.709 15-15s-6.709-15-15-15z" fill="url(#SVGID_1_)"/></g></g></svg>