<svg id="Capa_1" enable-background="new 0 0 511.978 511.978" height="512" viewBox="0 0 511.978 511.978" width="512" xmlns="http://www.w3.org/2000/svg" xmlns:xlink="http://www.w3.org/1999/xlink"><linearGradient id="SVGID_1_" gradientUnits="userSpaceOnUse" x1="255.989" x2="255.989" y1="511.978" y2="0"><stop offset="0" stop-color="#fd5900"/><stop offset="1" stop-color="#ffde00"/></linearGradient><g><g><path d="m445.847 76.794c2.813-2.813 4.395-6.621 4.395-10.605s-1.582-7.793-4.395-10.605c-28.623-28.623-71.367-37.808-109.248-24.39l-18.047-18.032c-17.52-17.549-46.113-17.549-63.633 0-13.629 13.628-16.36 33.746-8.822 50.336l-123.167 119.615c-5.041-1.958-10.47-3.135-16.194-3.135-24.814 0-45 20.186-45 45s20.186 45 45 45c5.49 0 10.69-1.13 15.558-2.937l95.885 115.098c-3.997 6.72-6.443 14.469-6.443 22.839v17h-15c-41.367 0-75 33.647-75 75 0 8.291 6.709 15 15 15h240c8.291 0 15-6.709 15-15 0-41.353-33.633-75-75-75h-15v-17c0-24.814-20.186-45-45-45-5.49 0-10.69 1.13-15.558 2.937l-95.885-115.098c3.997-6.72 6.443-14.469 6.443-22.839 0-8.077-2.309-15.557-6.05-22.115l119.376-115.936 7.905 7.899c-13.447 37.866-4.248 80.61 24.375 109.248 2.813 2.813 6.621 4.395 10.605 4.395s7.793-1.582 10.605-4.395l11.68-11.68c12.171 8.079 26.428 12.442 41.347 12.442 20.039 0 38.877-7.808 53.027-21.973 25.602-25.602 28.779-65.275 9.545-94.376zm-339.111 163.184c-8.262 0-15-6.724-15-15s6.738-15 15-15 15 6.724 15 15-6.738 15-15 15zm135 165c0-8.276 6.738-15 15-15s15 6.724 15 15v17h-30zm75 47c19.57 0 36.24 12.539 42.422 30h-204.844c6.182-17.461 22.852-30 42.422-30zm-7.705-280.818c-14.063-21.489-16.26-49.395-4.863-73.433 2.725-5.728 1.553-12.554-2.93-17.036l-25.107-25.107c-5.859-5.845-5.859-15.366 0-21.211 2.93-2.93 6.768-4.38 10.605-4.38s7.676 1.45 10.605 4.38l25.107 25.107c4.482 4.497 11.367 5.669 17.051 2.944 24.023-11.426 51.914-9.199 73.447 4.863l-9.432 9.428c-.035.035-.084.044-.119.079s-.044.084-.079.119zm94.365-9.507c-13.262 13.308-34.1 15.859-50.773 8.355l59.458-59.451c2.845 5.968 4.499 12.47 4.499 19.279 0 12.012-4.688 23.306-13.184 31.817z" fill="url(#SVGID_1_)"/></g></g></svg>