<svg id="Capa_1" enable-background="new 0 0 512 512" height="512" viewBox="0 0 512 512" width="512" xmlns="http://www.w3.org/2000/svg" xmlns:xlink="http://www.w3.org/1999/xlink"><linearGradient id="SVGID_1_" gradientUnits="userSpaceOnUse" x1="256" x2="256" y1="512" y2="0"><stop offset="0" stop-color="#00b59c"/><stop offset="1" stop-color="#9cffac"/></linearGradient><g><g><path d="m391 332c-17.683 0-34.074 5.305-47.999 14.147l-33.741-53.333 121.16-187.07c22.09-34.907 11.631-81.299-23.32-103.418-3.398-2.139-7.471-2.827-11.309-1.963-3.896.879-7.266 3.252-9.404 6.621l-130.392 201.652-130.335-201.679c-2.139-3.354-5.508-5.728-9.404-6.606-3.779-.835-7.91-.176-11.308 1.963-16.934 10.707-28.682 27.363-33.077 46.874-4.424 19.526-.938 39.609 9.756 56.528l121.109 187.097-33.743 53.332c-13.923-8.84-30.312-14.145-47.993-14.145-49.629 0-90 40.371-90 90s40.371 90 90 90c31.972 0 59.919-16.875 75.888-42.067l.225.143 58.89-93.083 58.883 93.083c.157.249.441.333.612.569 16.04 24.813 43.817 41.355 75.502 41.355 49.629 0 90-40.371 90-90s-40.371-90-90-90zm-270 150c-33.076 0-60-26.909-60-60s26.924-60 60-60 60 26.909 60 60-26.924 60-60 60zm-14.002-392.323c-6.445-10.151-8.525-22.178-5.859-33.882 1.494-6.665 4.424-12.759 8.525-17.974l128.575 198.88-17.747 28.048zm100.291 308.16c-3.228-11.488-8.604-21.962-15.791-31.106l210.855-328.868c11.455 14.561 13.154 35.332 2.695 51.841zm97.422.004-30.952-48.915 17.747-28.048 29.002 45.846c-7.189 9.146-12.567 19.625-15.797 31.117zm86.289 84.159c-33.076 0-60-26.909-60-60s26.924-60 60-60 60 26.909 60 60-26.924 60-60 60z" fill="url(#SVGID_1_)"/></g></g></svg>