<svg id="Capa_1" enable-background="new 0 0 512 512" height="512" viewBox="0 0 512 512" width="512" xmlns="http://www.w3.org/2000/svg" xmlns:xlink="http://www.w3.org/1999/xlink"><linearGradient id="SVGID_1_" gradientUnits="userSpaceOnUse" x1="13.153" x2="490.086" y1="498.866" y2="21.932"><stop offset="0" stop-color="#fd3a84"/><stop offset="1" stop-color="#ffa68d"/></linearGradient><g><g><path d="m490.093 21.94c-29.268-29.282-76.875-29.224-106.084 0l-89.238 89.253-10.605-10.635c-17.578-17.49-46.113-17.505-63.633.015-17.549 17.549-17.549 46.099 0 63.647l10.604 10.605-140.477 140.464c-12.334 12.349-19.395 29.414-19.395 46.816 0 9.668-3.779 18.765-10.605 25.605l-47.498 47.502c-17.549 17.549-17.549 46.099 0 63.662 8.789 8.761 20.302 13.126 31.816 13.126 11.513 0 23.057-4.38 31.816-13.14l47.527-47.516c6.738-6.738 16.055-10.605 25.605-10.605 17.432 0 34.482-7.075 46.816-19.395l140.438-140.449 10.618 10.62c8.789 8.76 20.303 13.125 31.816 13.125s23.057-4.38 31.816-13.14c17.549-17.549 17.549-46.099 0-63.647l-10.605-10.605 89.268-89.238c29.209-29.254 29.209-76.832 0-106.07zm-314.56 378.193c-6.738 6.738-16.084 10.605-25.605 10.605-17.461 0-34.512 7.075-46.816 19.395l-47.527 47.502c-5.859 5.859-15.352 5.845-21.211.015-5.859-5.859-5.859-15.366 0-21.226l47.498-47.502c12.51-12.51 19.395-29.136 19.395-46.816 0-9.521 3.867-18.853 10.605-25.605l5.464-5.464h127.288zm99.087-99.097h-127.282l105.007-104.996 63.625 63.64zm194.262-194.238-99.873 99.844c-2.813 2.813-4.395 6.621-4.395 10.605s1.582 7.793 4.395 10.605l21.211 21.211c5.859 5.859 5.859 15.366 0 21.211-5.859 5.859-15.352 5.845-21.211.015l-21.187-21.189c-.011-.011-.013-.026-.024-.037s-.026-.013-.037-.024l-84.802-84.813c-.002-.002-.003-.006-.005-.007s-.005-.004-.007-.006l-21.204-21.205c-5.859-5.859-5.859-15.366 0-21.211 2.93-2.93 6.768-4.395 10.605-4.395s7.676 1.465 10.605 4.38l21.211 21.226c2.813 2.813 6.621 4.395 10.605 4.395s7.793-1.582 10.605-4.395l99.844-99.858c17.549-17.52 46.055-17.578 63.662 0 17.522 17.535 17.522 46.099.002 63.648z" fill="url(#SVGID_1_)"/></g></g></svg>