<svg id="Capa_1" enable-background="new 0 0 512 512" height="512" viewBox="0 0 512 512" width="512" xmlns="http://www.w3.org/2000/svg" xmlns:xlink="http://www.w3.org/1999/xlink"><linearGradient id="SVGID_1_" gradientUnits="userSpaceOnUse" x1="256" x2="256" y1="496" y2="16"><stop offset="0" stop-color="#5558ff"/><stop offset="1" stop-color="#00c0ff"/></linearGradient><g><g><path d="m497 16h-482c-8.291 0-15 6.709-15 15v450c0 8.291 6.709 15 15 15h482c8.291 0 15-6.709 15-15v-450c0-8.291-6.709-15-15-15zm-15 450h-452v-330h452zm0-360h-452v-60h31v15c0 8.291 6.709 15 15 15s15-6.709 15-15v-15h30v15c0 8.291 6.709 15 15 15s15-6.709 15-15v-15h30v15c0 8.291 6.709 15 15 15s15-6.709 15-15v-15h271zm-406 180h360c8.291 0 15-6.709 15-15v-90c0-8.291-6.709-15-15-15h-360c-8.291 0-15 6.709-15 15v90c0 8.291 6.709 15 15 15zm15-90h330v60h-330zm-15 240h150c8.291 0 15-6.709 15-15v-90c0-8.291-6.709-15-15-15h-150c-8.291 0-15 6.709-15 15v90c0 8.291 6.709 15 15 15zm15-90h120v60h-120zm345-30h-150c-8.291 0-15 6.709-15 15v90c0 8.291 6.709 15 15 15h150c8.291 0 15-6.709 15-15v-90c0-8.291-6.709-15-15-15zm-15 90h-120v-60h120z" fill="url(#SVGID_1_)"/></g></g></svg>