<svg id="Capa_1" enable-background="new 0 0 512 512" height="512" viewBox="0 0 512 512" width="512" xmlns="http://www.w3.org/2000/svg" xmlns:xlink="http://www.w3.org/1999/xlink"><linearGradient id="SVGID_1_" gradientUnits="userSpaceOnUse" x1="256" x2="256" y1="512" y2="0"><stop offset="0" stop-color="#00b59c"/><stop offset="1" stop-color="#9cffac"/></linearGradient><g><g><path d="m269.037 129.559c-.192-.335-.582-.441-.8-.752-2.692-4.007-7.042-6.807-12.237-6.807s-9.545 2.8-12.237 6.806c-.218.311-.608.417-.8.752l-120 210c-2.813 4.937-2.607 11.03.557 15.762l26.719 40.078c20.126 30.176 30.761 65.303 30.761 101.602 0 8.291 6.709 15 15 15h120c8.291 0 15-6.709 15-15 0-36.299 10.635-71.426 30.762-101.602l26.719-40.078c3.164-4.731 3.369-10.825.557-15.762zm-13.037 208.652 8.789 8.789-8.789 8.789-8.789-8.789zm80.801 40.547c-20.625 30.938-32.695 66.357-35.273 103.242h-91.055c-2.578-36.885-14.648-72.305-35.273-103.242l-21.563-32.358 87.363-152.912v117.299l-23.877 23.864c-7.753 5.638-8.242 16.441-1.875 22.808l30.146 30.146c5.859 5.859 15.351 5.859 21.211 0l30-30c5.859-5.859 5.859-15.352 0-21.211l-25.605-25.605v-117.301l87.363 152.911zm160.199-288.758c8.291 0 15-6.709 15-15v-60c0-8.291-6.709-15-15-15s-15 6.709-15 15v15h-181v-15c0-8.291-6.709-15-15-15h-60c-8.291 0-15 6.709-15 15v15h-181v-15c0-8.291-6.709-15-15-15s-15 6.709-15 15v60c0 8.291 6.709 15 15 15s15-6.709 15-15v-15h115.141c-55.291 31.646-95.768 85.854-108.91 150h-20.231c-8.291 0-15 6.709-15 15v60c0 8.291 6.709 15 15 15h60c8.291 0 15-6.709 15-15v-60c0-8.291-6.709-15-15-15h-9.091c16.954-71.14 72.971-127.158 144.091-144.108v9.108c0 8.291 6.709 15 15 15h60c8.291 0 15-6.709 15-15v-9.108c71.12 16.95 127.137 72.968 144.091 144.108h-9.091c-8.291 0-15 6.709-15 15v60c0 8.291 6.709 15 15 15h60c8.291 0 15-6.709 15-15v-60c0-8.291-6.709-15-15-15h-20.231c-13.142-64.146-53.619-118.354-108.91-150h115.141v15c0 8.291 6.709 15 15 15zm-436 180h-30v-30h30zm210-210h-30v-30h30zm180 180h30v30h-30z" fill="url(#SVGID_1_)"/></g></g></svg>