<svg id="Capa_1" enable-background="new 0 0 512 512" height="512" viewBox="0 0 512 512" width="512" xmlns="http://www.w3.org/2000/svg" xmlns:xlink="http://www.w3.org/1999/xlink"><linearGradient id="SVGID_1_" gradientUnits="userSpaceOnUse" x1="256" x2="256" y1="512" y2="0"><stop offset="0" stop-color="#a93aff"/><stop offset="1" stop-color="#ff81ff"/></linearGradient><g><g><path d="m467 195c-8.291 0-15 6.709-15 15v92c0 8.291 6.709 15 15 15s15-6.709 15-15v-92c0-8.291-6.709-15-15-15zm-257-135h92c8.291 0 15-6.709 15-15s-6.709-15-15-15h-92c-8.291 0-15 6.709-15 15s6.709 15 15 15zm152 0h62.763c4.532 12.708 14.529 22.705 27.237 27.237v62.763c0 8.291 6.709 15 15 15s15-6.709 15-15v-62.763c17.422-6.213 30-22.707 30-42.237 0-24.814-20.186-45-45-45-19.53 0-36.024 12.578-42.237 30h-62.763c-8.291 0-15 6.709-15 15s6.709 15 15 15zm105-30c8.262 0 15 6.724 15 15s-6.738 15-15 15-15-6.724-15-15 6.738-15 15-15zm15 394.763v-62.763c0-8.291-6.709-15-15-15s-15 6.709-15 15v62.763c-12.708 4.532-22.705 14.529-27.237 27.237h-62.763c-8.291 0-15 6.709-15 15s6.709 15 15 15h62.763c6.213 17.422 22.707 30 42.237 30 24.814 0 45-20.186 45-45 0-19.53-12.578-36.024-30-42.237zm-15 57.237c-8.262 0-15-6.724-15-15s6.738-15 15-15 15 6.724 15 15-6.738 15-15 15zm-150-120c-8.262 0-15-6.724-15-15v-137h45c8.262 0 15 6.724 15 15 0 8.291 6.709 15 15 15s15-6.709 15-15v-90c0-8.291-6.709-15-15-15h-242c-8.291 0-15 6.709-15 15v90c0 8.291 6.709 15 15 15s15-6.709 15-15c0-8.276 6.738-15 15-15h45v137c0 8.276-6.738 15-15 15-8.291 0-15 6.709-15 15s6.709 15 15 15h122c8.291 0 15-6.709 15-15s-6.709-15-15-15zm-45-167v152c0 5.284 1.082 10.285 2.763 15h-37.526c1.681-4.715 2.763-9.716 2.763-15v-152c0-8.291-6.709-15-15-15h-60c-5.284 0-10.285 1.082-15 2.763v-32.763h212v32.763c-4.715-1.681-9.716-2.763-15-2.763h-60c-8.291 0-15 6.709-15 15zm30 257h-92c-8.291 0-15 6.709-15 15s6.709 15 15 15h92c8.291 0 15-6.709 15-15s-6.709-15-15-15zm-257-257c-8.291 0-15 6.709-15 15v92c0 8.291 6.709 15 15 15s15-6.709 15-15v-92c0-8.291-6.709-15-15-15zm105 257h-62.763c-4.532-12.708-14.529-22.705-27.237-27.237v-62.763c0-8.291-6.709-15-15-15s-15 6.709-15 15v62.763c-17.422 6.213-30 22.707-30 42.237 0 24.814 20.186 45 45 45 19.53 0 36.024-12.578 42.237-30h62.763c8.291 0 15-6.709 15-15s-6.709-15-15-15zm-105 30c-8.262 0-15-6.724-15-15s6.738-15 15-15 15 6.724 15 15-6.738 15-15 15zm-15-394.763v62.763c0 8.291 6.709 15 15 15s15-6.709 15-15v-62.763c12.708-4.532 22.705-14.529 27.237-27.237h62.763c8.291 0 15-6.709 15-15s-6.709-15-15-15h-62.763c-6.213-17.422-22.707-30-42.237-30-24.814 0-45 20.186-45 45 0 19.53 12.578 36.024 30 42.237zm15-57.237c8.262 0 15 6.724 15 15s-6.738 15-15 15-15-6.724-15-15 6.738-15 15-15z" fill="url(#SVGID_1_)"/></g></g></svg>