<svg id="Capa_1" enable-background="new 0 0 512 512" height="512" viewBox="0 0 512 512" width="512" xmlns="http://www.w3.org/2000/svg" xmlns:xlink="http://www.w3.org/1999/xlink"><linearGradient id="SVGID_1_" gradientUnits="userSpaceOnUse" x1="256" x2="256" y1="512" y2="0"><stop offset="0" stop-color="#5558ff"/><stop offset="1" stop-color="#00c0ff"/></linearGradient><g><g><path d="m466 0h-390c-8.291 0-15 6.709-15 15v46h-15c-8.291 0-15 6.709-15 15s6.709 15 15 15h15v60h-15c-8.291 0-15 6.709-15 15s6.709 15 15 15h15v60h-15c-8.291 0-15 6.709-15 15s6.709 15 15 15h15v60h-15c-8.291 0-15 6.709-15 15s6.709 15 15 15h15v60h-15c-8.291 0-15 6.709-15 15s6.709 15 15 15h15v46c0 8.291 6.709 15 15 15h390c8.291 0 15-6.709 15-15v-482c0-8.291-6.709-15-15-15zm-165 30h90v189.789l-34.395-34.395c-5.859-5.859-15.352-5.859-21.211 0l-34.394 34.395zm-150 452h-60v-31h15c8.291 0 15-6.709 15-15s-6.709-15-15-15h-15v-60h15c8.291 0 15-6.709 15-15s-6.709-15-15-15h-15v-60h15c8.291 0 15-6.709 15-15s-6.709-15-15-15h-15v-60h15c8.291 0 15-6.709 15-15s-6.709-15-15-15h-15v-60h15c8.291 0 15-6.709 15-15s-6.709-15-15-15h-15v-31h60zm300 0h-270v-452h90v226c0 6.064 3.662 11.543 9.258 13.857 5.566 2.344 12.07 1.055 16.348-3.252l49.394-49.394 49.395 49.395c4.36 4.36 10.894 5.546 16.348 3.252 5.595-2.315 9.257-7.794 9.257-13.858v-226h30z" fill="url(#SVGID_1_)"/></g></g></svg>