<svg id="Capa_1" enable-background="new 0 0 512.024 512.024" height="512" viewBox="0 0 512.024 512.024" width="512" xmlns="http://www.w3.org/2000/svg" xmlns:xlink="http://www.w3.org/1999/xlink"><linearGradient id="SVGID_1_" gradientUnits="userSpaceOnUse" x1="256.012" x2="256.012" y1="512.024" y2="0"><stop offset="0" stop-color="#fd3a84"/><stop offset="1" stop-color="#ffa68d"/></linearGradient><g><g><path d="m512.012 256c0-5.684-4.223-10.869-9.291-13.418l-93.164-46.582 93.164-46.582c5.068-2.549 9.291-7.734 9.291-13.418s-4.223-10.869-9.291-13.418l-240-121c-4.219-2.109-9.199-2.109-13.418 0l-240 121c-5.068 2.549-9.291 7.734-9.291 13.418s4.223 10.869 9.291 13.418l93.164 46.582-93.164 46.582c-5.068 2.549-9.291 7.734-9.291 13.418s4.223 10.869 9.291 13.418l93.164 46.582-93.164 46.582c-5.068 2.549-9.291 7.734-9.291 13.418s4.223 10.869 9.291 13.418l240 120c6.935 3.468 6.455 3.481 13.418 0l240-120c5.068-2.549 9.291-7.734 9.291-13.418s-4.223-10.869-9.291-13.418l-93.164-46.582 93.164-46.582c5.068-2.549 9.291-7.734 9.291-13.418zm-462.455-120 206.455-104.228 206.455 104.228-206.455 103.228zm412.91 240-206.455 103.228-206.455-103.228 86.455-43.228 113.291 56.646c4.214 2.107 9.199 2.109 13.418 0l113.291-56.646zm-206.455-16.772-206.455-103.228 86.455-43.228 113.291 56.646c4.214 2.107 9.199 2.109 13.418 0l113.291-56.646 86.455 43.228z" fill="url(#SVGID_1_)"/></g></g></svg>