<svg id="Capa_1" enable-background="new 0 0 512 512" height="512" viewBox="0 0 512 512" width="512" xmlns="http://www.w3.org/2000/svg" xmlns:xlink="http://www.w3.org/1999/xlink"><linearGradient id="SVGID_1_" gradientUnits="userSpaceOnUse" x1="256" x2="256" y1="512" y2="0"><stop offset="0" stop-color="#fd5900"/><stop offset="1" stop-color="#ffde00"/></linearGradient><g><g><path d="m256 121c-74.443 0-135 60.557-135 135s60.557 135 135 135 135-60.557 135-135-60.557-135-135-135zm-15 238.484c-50.75-7.357-90-50.729-90-103.484s39.25-96.127 90-103.484zm30 0v-206.968c50.75 7.357 90 50.729 90 103.484s-39.25 96.127-90 103.484zm-15-269.484c8.291 0 15-6.709 15-15v-60c0-8.291-6.709-15-15-15s-15 6.709-15 15v60c0 8.291 6.709 15 15 15zm0 332c-8.291 0-15 6.709-15 15v60c0 8.291 6.709 15 15 15s15-6.709 15-15v-60c0-8.291-6.709-15-15-15zm-166-166c0-8.291-6.709-15-15-15h-60c-8.291 0-15 6.709-15 15s6.709 15 15 15h60c8.291 0 15-6.709 15-15zm407-15h-60c-8.291 0-15 6.709-15 15s6.709 15 15 15h60c8.291 0 15-6.709 15-15s-6.709-15-15-15zm-378.871 131.675-42.451 42.422c-5.859 5.845-5.859 15.352 0 21.211s15.351 5.859 21.211 0l42.451-42.422c5.859-5.845 5.859-15.352 0-21.211s-15.352-5.86-21.211 0zm275.742-233.35 42.451-42.422c5.859-5.845 5.859-15.352 0-21.211s-15.352-5.859-21.211 0l-42.451 42.422c-5.859 5.845-5.859 15.352 0 21.211 5.859 5.86 15.352 5.86 21.211 0zm0 233.35c-5.859-5.859-15.352-5.859-21.211 0s-5.859 15.366 0 21.211l42.451 42.422c5.859 5.859 15.351 5.859 21.211 0 5.859-5.859 5.859-15.366 0-21.211zm-275.742-233.35c5.859 5.859 15.351 5.859 21.211 0 5.859-5.859 5.859-15.366 0-21.211l-42.451-42.422c-5.859-5.859-15.352-5.859-21.211 0s-5.859 15.366 0 21.211z" fill="url(#SVGID_1_)"/></g></g></svg>