<svg id="Capa_1" enable-background="new 0 0 512 512" height="512" viewBox="0 0 512 512" width="512" xmlns="http://www.w3.org/2000/svg" xmlns:xlink="http://www.w3.org/1999/xlink"><linearGradient id="SVGID_1_" gradientUnits="userSpaceOnUse" x1="256" x2="256" y1="512" y2="0"><stop offset="0" stop-color="#a93aff"/><stop offset="1" stop-color="#ff81ff"/></linearGradient><g><g><path d="m497 151h-482c-8.291 0-15 6.709-15 15v180c0 8.291 6.709 15 15 15h482c8.291 0 15-6.709 15-15v-180c0-8.291-6.709-15-15-15zm-376 180h-91v-150h91zm120 0h-90v-150h90zm120 0h-90v-150h90zm121 0h-91v-150h91zm-317-271h60c8.291 0 15-6.709 15-15s-6.709-15-15-15h-60c-8.291 0-15 6.709-15 15s6.709 15 15 15zm120 0h60c8.291 0 15-6.709 15-15s-6.709-15-15-15h-60c-8.291 0-15 6.709-15 15s6.709 15 15 15zm120 0h60c8.291 0 15-6.709 15-15s-6.709-15-15-15h-60c-8.291 0-15 6.709-15 15s6.709 15 15 15zm57.605 336.395c-5.859-5.859-15.352-5.859-21.211 0l-45 45c-2.812 2.812-4.394 6.621-4.394 10.605v45c0 8.291 6.709 15 15 15h90c8.291 0 15-6.709 15-15v-45c0-3.984-1.582-7.793-4.395-10.605zm19.395 85.605h-60v-23.789l30-30 30 30zm-432.605-366.395c2.929 2.93 6.767 4.395 10.605 4.395s7.676-1.465 10.605-4.395l45-45c2.813-2.812 4.395-6.621 4.395-10.605v-45c0-8.291-6.709-15-15-15h-90c-8.291 0-15 6.709-15 15v45c0 3.984 1.582 7.793 4.395 10.605zm-19.395-85.605h60v23.789l-30 30-30-30zm77 422h-60c-8.291 0-15 6.709-15 15s6.709 15 15 15h60c8.291 0 15-6.709 15-15s-6.709-15-15-15zm120 0h-60c-8.291 0-15 6.709-15 15s6.709 15 15 15h60c8.291 0 15-6.709 15-15s-6.709-15-15-15zm120 0h-60c-8.291 0-15 6.709-15 15s6.709 15 15 15h60c8.291 0 15-6.709 15-15s-6.709-15-15-15z" fill="url(#SVGID_1_)"/></g></g></svg>