<svg id="Capa_1" enable-background="new 0 0 512 512" height="512" viewBox="0 0 512 512" width="512" xmlns="http://www.w3.org/2000/svg" xmlns:xlink="http://www.w3.org/1999/xlink"><linearGradient id="SVGID_1_" gradientUnits="userSpaceOnUse" x1="256" x2="256" y1="512" y2="0"><stop offset="0" stop-color="#5558ff"/><stop offset="1" stop-color="#00c0ff"/></linearGradient><g><g><path d="m509.188 247.27c-4.571-6.387-114.526-156.27-253.188-156.27s-248.617 149.883-253.187 156.27c-3.75 5.215-3.75 12.246 0 17.461 4.57 6.386 114.525 156.269 253.187 156.269s248.617-149.883 253.188-156.27c3.75-5.214 3.75-12.246 0-17.46zm-253.188 143.73c-105.176 0-197.143-103.813-222.074-135 24.931-31.187 116.898-135 222.074-135s197.143 103.813 222.074 135c-24.931 31.187-116.898 135-222.074 135zm0-240c-57.891 0-105 47.109-105 105s47.109 105 105 105 105-47.109 105-105-47.109-105-105-105zm0 180c-41.367 0-75-33.647-75-75s33.633-75 75-75 75 33.647 75 75-33.633 75-75 75zm0-120c-24.814 0-45 20.186-45 45s20.186 45 45 45 45-20.186 45-45-20.186-45-45-45zm0 60c-8.262 0-15-6.724-15-15s6.738-15 15-15 15 6.724 15 15-6.738 15-15 15zm0-211c8.291 0 15-6.709 15-15v-30c0-8.291-6.709-15-15-15s-15 6.709-15 15v30c0 8.291 6.709 15 15 15zm0 392c-8.291 0-15 6.709-15 15v30c0 8.291 6.709 15 15 15s15-6.709 15-15v-30c0-8.291-6.709-15-15-15zm-117.979-370.36c4.081 7.12 13.237 9.65 20.479 5.493 7.178-4.146 9.639-13.315 5.479-20.493l-15-25.986c-4.131-7.178-13.359-9.624-20.479-5.493-7.178 4.146-9.639 13.315-5.479 20.493zm235.958 348.72c-4.102-7.192-13.301-9.653-20.479-5.493-7.178 4.146-9.639 13.315-5.479 20.493l15 25.986c4.081 7.12 13.237 9.65 20.479 5.493 7.178-4.146 9.639-13.315 5.479-20.493zm-20.479-343.227c7.242 4.157 16.399 1.625 20.479-5.493l15-25.986c4.16-7.178 1.699-16.348-5.479-20.493-7.148-4.087-16.348-1.67-20.479 5.493l-15 25.986c-4.16 7.177-1.699 16.347 5.479 20.493zm-195 337.734c-7.148-4.116-16.348-1.685-20.479 5.493l-15 25.986c-4.16 7.178-1.699 16.348 5.479 20.493 7.242 4.157 16.399 1.625 20.479-5.493l15-25.986c4.16-7.177 1.699-16.347-5.479-20.493z" fill="url(#SVGID_1_)"/></g></g></svg>