<svg id="Capa_1" enable-background="new 0 0 512 512" height="512" viewBox="0 0 512 512" width="512" xmlns="http://www.w3.org/2000/svg" xmlns:xlink="http://www.w3.org/1999/xlink"><linearGradient id="SVGID_1_" gradientUnits="userSpaceOnUse" x1="256" x2="256" y1="512" y2="0"><stop offset="0" stop-color="#00b59c"/><stop offset="1" stop-color="#9cffac"/></linearGradient><g><g><path d="m436 272h-96.194c30.948-24.76 51.194-62.373 51.194-105 0-8.291-6.709-15-15-15-42.627 0-80.24 20.246-105 51.194v-54.71c67.315-7.573 120-64.177 120-133.484 0-8.291-6.709-15-15-15-52.566 0-97.714 30.494-120 74.451-22.286-43.957-67.434-74.451-120-74.451-8.291 0-15 6.709-15 15 0 69.307 52.685 125.911 120 133.484v54.71c-24.76-30.948-62.373-51.194-105-51.194-8.291 0-15 6.709-15 15 0 42.627 20.246 80.24 51.194 105h-96.194c-8.291 0-15 6.709-15 15s6.709 15 15 15c11.016 0 20.801 7.383 23.818 17.959l51.768 181.157c1.846 6.446 7.705 10.884 14.414 10.884h180c6.709 0 12.568-4.438 14.414-10.884l51.768-181.157c3.017-10.576 12.802-17.959 23.818-17.959 8.291 0 15-6.709 15-15s-6.709-15-15-15zm-76.26-240.74c-7.002 44.912-42.568 80.479-87.48 87.48 7.002-44.912 42.568-80.478 87.48-87.48zm-207.48 0c44.912 7.002 80.479 42.568 87.48 87.48-44.912-7.002-80.478-42.568-87.48-87.48zm207.48 152c-7.002 44.912-42.568 80.479-87.48 87.48 7.002-44.912 42.568-80.478 87.48-87.48zm-207.48 0c44.912 7.002 80.479 42.568 87.48 87.48-44.912-7.002-80.478-42.568-87.48-87.48zm182.431 298.74h-157.382c-56.89-194.884-45.043-164.13-53.265-180h263.914c-8.24 15.901 3.496-14.447-53.267 180z" fill="url(#SVGID_1_)"/></g></g></svg>