<svg id="Capa_1" enable-background="new 0 0 512 512" height="512" viewBox="0 0 512 512" width="512" xmlns="http://www.w3.org/2000/svg" xmlns:xlink="http://www.w3.org/1999/xlink"><linearGradient id="SVGID_1_" gradientUnits="userSpaceOnUse" x1="256" x2="256" y1="512" y2="0"><stop offset="0" stop-color="#fd5900"/><stop offset="1" stop-color="#ffde00"/></linearGradient><g><g><path d="m497 212h-195v-197c0-8.291-6.709-15-15-15h-272c-8.291 0-15 6.709-15 15v272c0 8.291 6.709 15 15 15h197v195c0 8.291 6.709 15 15 15h270c8.291 0 15-6.709 15-15v-270c0-8.291-6.709-15-15-15zm-285 15v45h-182v-242h242v182h-45c-8.291 0-15 6.709-15 15zm270 255h-240v-240h240zm-195-30h150c8.291 0 15-6.709 15-15v-150c0-8.291-6.709-15-15-15h-150c-8.291 0-15 6.709-15 15v150c0 8.291 6.709 15 15 15zm15-150h120v120h-120z" fill="url(#SVGID_1_)"/></g></g></svg>