<svg id="Capa_1" enable-background="new 0 0 512 512" height="512" viewBox="0 0 512 512" width="512" xmlns="http://www.w3.org/2000/svg" xmlns:xlink="http://www.w3.org/1999/xlink"><linearGradient id="SVGID_1_" gradientUnits="userSpaceOnUse" x1="256" x2="256" y1="512" y2="0"><stop offset="0" stop-color="#5558ff"/><stop offset="1" stop-color="#00c0ff"/></linearGradient><g><g><path d="m497 0h-482c-8.291 0-15 6.709-15 15v392c0 8.291 6.709 15 15 15h190.179l-19.999 60h-19.18c-8.291 0-15 6.709-15 15s6.709 15 15 15h180c8.291 0 15-6.709 15-15s-6.709-15-15-15h-19.18l-19.999-60h190.179c8.291 0 15-6.709 15-15v-392c0-8.291-6.709-15-15-15zm-280.179 482 19.999-60h38.361l19.999 60zm265.179-90h-452v-362h452zm-376-241h47.763c6.213 17.422 22.707 30 42.237 30s36.024-12.578 42.237-30h167.763c8.291 0 15-6.709 15-15s-6.709-15-15-15h-167.763c-6.213-17.422-22.707-30-42.237-30s-36.024 12.578-42.237 30h-47.763c-8.291 0-15 6.709-15 15s6.709 15 15 15zm90-30c8.262 0 15 6.724 15 15s-6.738 15-15 15-15-6.724-15-15 6.738-15 15-15zm-90 180h167.763c6.213 17.422 22.707 30 42.237 30s36.024-12.578 42.237-30h47.763c8.291 0 15-6.709 15-15s-6.709-15-15-15h-47.763c-6.213-17.422-22.707-30-42.237-30s-36.024 12.578-42.237 30h-167.763c-8.291 0-15 6.709-15 15s6.709 15 15 15zm210-30c8.262 0 15 6.724 15 15s-6.738 15-15 15-15-6.724-15-15 6.738-15 15-15z" fill="url(#SVGID_1_)"/></g></g></svg>