<svg id="Capa_1" enable-background="new 0 0 512 512" height="512" viewBox="0 0 512 512" width="512" xmlns="http://www.w3.org/2000/svg" xmlns:xlink="http://www.w3.org/1999/xlink"><linearGradient id="SVGID_1_" gradientUnits="userSpaceOnUse" x1="256" x2="256" y1="512" y2="0"><stop offset="0" stop-color="#00b59c"/><stop offset="1" stop-color="#9cffac"/></linearGradient><g><g><path d="m162.719 235.078c19.072 28.623 30.41 61.802 32.783 95.962.557 7.866 7.09 13.96 14.971 13.96h91.055c7.881 0 14.414-6.094 14.971-13.96 2.373-34.175 13.711-67.354 32.783-95.962l21.563-32.358c3.164-4.731 3.369-10.825.557-15.762l-101.576-177.784c-.011-.024-.026-.042-.037-.064-.273-.3-4.324-9.11-13.789-9.11-9.495 0-13.594 8.896-13.79 9.109-.011.022-.026.041-.037.064l-101.573 177.785c-2.813 4.937-2.607 11.03.557 15.762zm93.281-48.867 8.789 8.789-8.789 8.789-8.789-8.789zm-15-114.49v87.066l-23.877 23.864c-7.753 5.638-8.242 16.441-1.875 22.808l30.146 30.146c5.859 5.859 15.351 5.859 21.211 0l30-30c5.859-5.859 5.859-15.352 0-21.211l-25.605-25.605v-87.068l69.756 122.078-16.436 24.639c-19.336 29.033-31.787 62.153-36.357 96.563h-63.926c-4.57-34.395-17.021-67.515-36.357-96.563l-16.436-24.639zm256 140.279h-91c-8.291 0-15 6.709-15 15v30c0 74.443-60.557 135-135 135s-135-60.557-135-135v-30c0-8.291-6.709-15-15-15h-91c-8.291 0-15 6.709-15 15v60c0 8.291 6.709 15 15 15h20.541c5.742 28.096 16.904 55.02 32.783 79.014l-13.857 13.872c-5.859 5.859-5.859 15.352 0 21.211l42.422 42.422c5.859 5.859 15.352 5.859 21.211 0l13.857-13.872c24.023 15.908 50.947 27.085 79.043 32.827v19.526c0 8.291 6.709 15 15 15h60c8.291 0 15-6.709 15-15v-19.526c28.096-5.742 55.02-16.919 79.043-32.827l13.857 13.872c5.859 5.859 15.352 5.859 21.211 0l42.422-42.422c5.859-5.859 5.859-15.352 0-21.211l-13.857-13.872c15.879-23.994 27.041-50.918 32.783-79.014h20.541c8.291 0 15-6.709 15-15v-60c0-8.291-6.709-15-15-15zm-15 60h-18.139c-7.471 0-13.799 5.479-14.854 12.876-4.6 32.051-17.344 62.769-36.885 88.828-4.453 5.977-3.867 14.326 1.406 19.6l12.188 12.188-21.211 21.211-12.188-12.188c-5.273-5.317-13.623-5.874-19.6-1.406-26.074 19.556-56.807 32.314-88.857 36.899-7.383 1.069-12.861 7.397-12.861 14.854v17.138h-30v-17.139c0-7.456-5.479-13.784-12.861-14.854-32.051-4.585-62.783-17.344-88.857-36.899-5.977-4.468-14.326-3.911-19.6 1.406l-12.188 12.188-21.211-21.211 12.188-12.188c5.273-5.273 5.859-13.623 1.406-19.6-19.541-26.06-32.285-56.777-36.885-88.828-1.053-7.396-7.382-12.875-14.852-12.875h-18.139v-30h61v15c0 90.981 74.033 165 165 165s165-74.019 165-165v-15h61z" fill="url(#SVGID_1_)"/></g></g></svg>