<svg id="Capa_1" enable-background="new 0 0 512 512" height="512" viewBox="0 0 512 512" width="512" xmlns="http://www.w3.org/2000/svg" xmlns:xlink="http://www.w3.org/1999/xlink"><linearGradient id="SVGID_1_" gradientUnits="userSpaceOnUse" x1="256" x2="256" y1="512" y2="0"><stop offset="0" stop-color="#a93aff"/><stop offset="1" stop-color="#ff81ff"/></linearGradient><g><g><path d="m226 150h-15v-135c0-8.291-6.709-15-15-15h-120c-8.291 0-15 6.709-15 15v135h-15c-8.291 0-15 6.709-15 15v242c0 57.891 47.109 105 105 105s105-47.109 105-105v-242c0-8.291-6.709-15-15-15zm-135-120h90v120h-90zm120 377c0 41.353-33.633 75-75 75s-75-33.647-75-75v-227h150zm-75 45c24.814 0 45-20.186 45-45s-20.186-45-45-45-45 20.186-45 45 20.186 45 45 45zm0-60c8.262 0 15 6.724 15 15s-6.738 15-15 15-15-6.724-15-15 6.738-15 15-15zm0-332c-8.291 0-15 6.709-15 15v30c0 8.291 6.709 15 15 15s15-6.709 15-15v-30c0-8.291-6.709-15-15-15zm240 212c-57.891 0-105 47.109-105 105v120c0 8.291 6.709 15 15 15h180c8.291 0 15-6.709 15-15v-120c0-57.891-47.109-105-105-105zm75 210h-150v-105c0-41.353 33.633-75 75-75s75 33.647 75 75z" fill="url(#SVGID_1_)"/></g></g></svg>