<svg id="Capa_1" enable-background="new 0 0 512 512" height="512" viewBox="0 0 512 512" width="512" xmlns="http://www.w3.org/2000/svg" xmlns:xlink="http://www.w3.org/1999/xlink"><linearGradient id="SVGID_1_" gradientUnits="userSpaceOnUse" x1="256" x2="256" y1="481" y2="31"><stop offset="0" stop-color="#00b59c"/><stop offset="1" stop-color="#9cffac"/></linearGradient><g><g><path d="m199.75 339.804c-45.41-11.689-82.09-11.689-127.5 0-8.027 2.065-12.832 10.254-10.781 18.267 2.08 8.013 10.137 12.891 18.281 10.796 40.488-10.43 72.012-10.43 112.5 0 7.975 2.04 16.186-2.728 18.281-10.796 2.051-8.013-2.754-16.202-10.781-18.267zm-127.5-60c-8.027 2.065-12.832 10.254-10.781 18.267 2.08 8.013 10.137 12.905 18.281 10.796 40.488-10.43 72.012-10.43 112.5 0 7.975 2.04 16.186-2.728 18.281-10.796 2.051-8.013-2.754-16.201-10.781-18.267-45.41-11.69-82.09-11.69-127.5 0zm367.5 60c-45.41-11.689-82.09-11.689-127.5 0-8.027 2.065-12.832 10.254-10.781 18.267 2.08 8.013 10.195 12.891 18.281 10.796 40.488-10.43 72.012-10.43 112.5 0 7.975 2.04 16.186-2.728 18.281-10.796 2.051-8.013-2.754-16.202-10.781-18.267zm-127.5-60c-8.027 2.065-12.832 10.254-10.781 18.267 2.08 8.013 10.195 12.905 18.281 10.796 40.488-10.43 72.012-10.43 112.5 0 7.975 2.04 16.186-2.728 18.281-10.796 2.051-8.013-2.754-16.201-10.781-18.267-45.41-11.69-82.09-11.69-127.5 0zm191.459-217.222c-2.578-1.289-64.896-31.582-127.709-31.582-52.079 0-102.601 20.627-120 28.479-17.399-7.852-67.921-28.479-120-28.479-62.812 0-125.131 30.293-127.709 31.582-5.068 2.549-8.291 7.735-8.291 13.418v390c0 5.2 2.695 10.02 7.119 12.744 4.395 2.71 9.902 2.988 14.59.674.557-.278 58.686-28.418 114.291-28.418s112.734 28.14 113.291 28.418c4.136 2.068 9.06 2.149 13.418 0 .557-.278 57.686-28.418 113.291-28.418s113.734 28.14 114.291 28.418c4.658 2.329 10.195 2.065 14.59-.674 4.424-2.724 7.119-7.544 7.119-12.744v-390c0-5.683-3.223-10.869-8.291-13.418zm-262.709 380.581c-23.818-9.316-64.102-22.163-105-22.163s-82.182 12.847-106 22.163v-357.524c17.871-7.735 62.904-24.639 106-24.639s87.129 16.904 105 24.639zm241 0c-23.818-9.316-65.102-22.163-106-22.163-41.096 0-81.216 12.885-105 22.212v-357.546c17.611-7.652 61.575-24.666 105-24.666 43.096 0 88.129 16.904 106 24.639zm-166-262.163c0 33.091 26.924 60 60 60s60-26.909 60-60-26.924-60-60-60-60 26.909-60 60zm90 0c0 16.538-13.447 30-30 30s-30-13.462-30-30 13.447-30 30-30 30 13.462 30 30zm-330-45v90c0 8.291 6.709 15 15 15h90c8.291 0 15-6.709 15-15v-90c0-8.291-6.709-15-15-15h-90c-8.291 0-15 6.709-15 15zm30 15h60v60h-60z" fill="url(#SVGID_1_)"/></g></g></svg>