<svg id="Capa_1" enable-background="new 0 0 511.807 511.807" height="512" viewBox="0 0 511.807 511.807" width="512" xmlns="http://www.w3.org/2000/svg" xmlns:xlink="http://www.w3.org/1999/xlink"><linearGradient id="SVGID_1_" gradientUnits="userSpaceOnUse" x1="255.904" x2="255.904" y1="480.904" y2="30.904"><stop offset="0" stop-color="#a93aff"/><stop offset="1" stop-color="#ff81ff"/></linearGradient><g><g><path d="m507.605 245.298-60-60c-5.859-5.859-15.352-5.859-21.211 0s-5.859 15.352 0 21.211l34.395 34.395h-189.789v-92.131c25.8-6.707 45-29.989 45-57.869 0-33.091-26.924-60-60-60s-60 26.909-60 60c0 27.88 19.2 51.162 45 57.869v92.131h-150v-92.131c25.8-6.707 45-29.989 45-57.869 0-33.091-26.924-60-60-60s-60 26.909-60 60c0 27.88 19.2 51.162 45 57.869v92.131h-46c-8.291 0-15 6.709-15 15s6.709 15 15 15h136v92.131c-25.8 6.707-45 29.989-45 57.869 0 33.091 26.924 60 60 60s60-26.909 60-60c0-27.88-19.2-51.162-45-57.869v-92.131h150v92.131c-25.8 6.707-45 29.989-45 57.869 0 33.091 26.924 60 60 60s60-26.909 60-60c0-27.88-19.2-51.162-45-57.869v-92.131h99.789l-34.395 34.395c-5.859 5.859-5.859 15.352 0 21.211s15.351 5.859 21.211 0l60-60c6.262-6.263 4.902-16.311 0-21.212zm-461.605-154.394c0-16.538 13.447-30 30-30s30 13.462 30 30-13.447 30-30 30-30-13.462-30-30zm150 330c0 16.538-13.447 30-30 30s-30-13.462-30-30 13.447-30 30-30 30 13.461 30 30zm30-330c0-16.538 13.447-30 30-30s30 13.462 30 30-13.447 30-30 30-30-13.462-30-30zm150 330c0 16.538-13.447 30-30 30s-30-13.462-30-30 13.447-30 30-30 30 13.461 30 30z" fill="url(#SVGID_1_)"/></g></g></svg>