<svg id="Capa_1" enable-background="new 0 0 512 512" height="512" viewBox="0 0 512 512" width="512" xmlns="http://www.w3.org/2000/svg" xmlns:xlink="http://www.w3.org/1999/xlink"><linearGradient id="SVGID_1_" gradientUnits="userSpaceOnUse" x1="256" x2="256" y1="512" y2="0"><stop offset="0" stop-color="#5558ff"/><stop offset="1" stop-color="#00c0ff"/></linearGradient><g><g><path d="m496 270h-195v-30h105c8.291 0 15-6.709 15-15v-210c0-8.291-6.709-15-15-15h-300c-8.291 0-15 6.709-15 15v210c0 8.291 6.709 15 15 15h105v30h-195c-8.291 0-15 6.709-15 15v60c0 8.291 6.709 15 15 15h15v137c0 8.291 6.709 15 15 15s15-6.709 15-15v-137h390v137c0 8.291 6.709 15 15 15s15-6.709 15-15v-137h15c8.291 0 15-6.709 15-15v-60c0-8.291-6.709-15-15-15zm-375-60v-180h270v180zm150 30v30h-30v-30zm210 90h-450v-30h450z" fill="url(#SVGID_1_)"/></g></g></svg>