<svg id="Capa_1" enable-background="new 0 0 512 512" height="512" viewBox="0 0 512 512" width="512" xmlns="http://www.w3.org/2000/svg" xmlns:xlink="http://www.w3.org/1999/xlink"><linearGradient id="SVGID_1_" gradientUnits="userSpaceOnUse" x1="256" x2="256" y1="512" y2="0"><stop offset="0" stop-color="#00b59c"/><stop offset="1" stop-color="#9cffac"/></linearGradient><g><g><path d="m436 60h-20.728l-25.854-51.709c-2.549-5.083-7.734-8.291-13.418-8.291h-240c-5.684 0-10.869 3.208-13.418 8.291l-25.854 51.709h-20.728c-8.291 0-15 6.709-15 15v62c0 8.291 6.709 15 15 15h17.294l57.911 347.461c1.201 7.236 7.471 12.539 14.795 12.539h180c7.324 0 13.594-5.303 14.795-12.539l57.911-347.461h17.294c8.291 0 15-6.709 15-15v-62c0-8.291-6.709-15-15-15zm-290.742-30h221.484l14.991 30h-251.466zm188.027 452h-154.57l-20.004-120h29.409c12.129 36.343 38.408 60 67.881 60s55.752-23.657 67.881-60h29.409zm25.005-150h-45.718c-6.973 0-13.008 4.79-14.59 11.558-6.738 28.52-23.994 48.442-41.982 48.442s-35.244-19.922-41.982-48.442c-1.582-6.768-7.618-11.558-14.59-11.558h-45.718l-5.001-30h50.718c6.973 0 13.008-4.79 14.59-11.558 6.739-28.52 23.995-48.442 41.983-48.442s35.244 19.922 41.982 48.442c1.582 6.768 7.618 11.558 14.59 11.558h50.718zm10.001-60h-44.41c-12.129-36.343-38.408-60-67.881-60s-55.752 23.657-67.881 60h-44.41l-20.002-120h264.587zm52.709-150h-330v-32h330z" fill="url(#SVGID_1_)"/></g></g></svg>