<svg id="Capa_1" enable-background="new 0 0 512 512" height="512" viewBox="0 0 512 512" width="512" xmlns="http://www.w3.org/2000/svg" xmlns:xlink="http://www.w3.org/1999/xlink"><linearGradient id="SVGID_1_" gradientUnits="userSpaceOnUse" x1="256" x2="256" y1="451" y2="61"><stop offset="0" stop-color="#fd5900"/><stop offset="1" stop-color="#ffde00"/></linearGradient><g><g><path d="m510.923 336.424c-.024-.116.018-.226-.007-.341l-48.75-216.563c-7.764-34.453-37.852-58.52-73.154-58.52h-42.012c-8.291 0-15 6.709-15 15s6.709 15 15 15h42.012c21.182 0 39.229 14.443 43.887 35.127l39.467 175.415c-1.78-.214-3.529-.542-5.365-.542h-150.001c-19.53 0-36.024 12.578-42.237 30h-37.526c-6.213-17.422-22.707-30-42.237-30h-150c-1.838 0-3.589.326-5.37.542l39.443-175.4c4.687-20.699 22.734-35.142 43.915-35.142h42.012c8.291 0 15-6.709 15-15s-6.709-15-15-15h-42.012c-35.303 0-65.391 24.067-73.184 58.535l-48.72 216.548c-.026.115.016.225-.007.341-.674 3.092-1.077 6.284-1.077 9.576v30c0 41.353 33.633 75 75 75h90c41.367 0 75-33.647 75-75v-15h32v15c0 41.353 33.633 75 75 75h90c41.367 0 75-33.647 75-75v-30c0-3.292-.403-6.484-1.077-9.576zm-300.923 39.576c0 24.814-20.186 45-45 45h-90c-24.814 0-45-20.186-45-45v-30c0-8.276 6.738-15 15-15h150c8.262 0 15 6.724 15 15zm272 0c0 24.814-20.186 45-45 45h-90c-24.814 0-45-20.186-45-45v-30c0-8.276 6.738-15 15-15h150c8.262 0 15 6.724 15 15z" fill="url(#SVGID_1_)"/></g></g></svg>