<svg id="Capa_1" enable-background="new 0 0 512 512" height="512" viewBox="0 0 512 512" width="512" xmlns="http://www.w3.org/2000/svg" xmlns:xlink="http://www.w3.org/1999/xlink"><linearGradient id="SVGID_1_" gradientUnits="userSpaceOnUse" x1="256" x2="256" y1="512" y2="0"><stop offset="0" stop-color="#fd3a84"/><stop offset="1" stop-color="#ffa68d"/></linearGradient><g><g><path d="m497 211h-166v-196c0-8.228-6.746-15-15-15h-301c-8.228 0-15 6.746-15 15v211c0 8.291 6.709 15 15 15h46v45c0 11.942 13.303 19.12 23.32 12.48l86.221-57.48h10.459v196c0 8.291 6.709 15 15 15h145.459l86.221 57.48c4.671 3.096 10.562 3.331 15.41.747 4.863-2.607 7.91-7.69 7.91-13.228v-45h46c8.291 0 15-6.709 15-15v-210.999c0-8.291-6.709-15-15-15zm-217.211-181-113.789 113.789-113.789-113.789zm-113.789 181c-2.959 0-5.859.879-8.32 2.52l-66.68 44.458v-31.978c0-8.291-6.709-15-15-15h-46v-159.789l125.395 124.395c2.93 2.93 6.768 4.395 10.605 4.395s7.676-1.465 10.605-4.395l124.395-124.395v159.789c-13.798 0-117.263 0-135 0zm316 211h-46c-8.291 0-15 6.709-15 15v31.978l-66.68-44.458c-2.461-1.641-5.361-2.52-8.32-2.52h-135v-181h271zm-196-76c8.284 0 15-6.716 15-15 0-8.286-6.716-15-15-15s-15 6.714-15 15c0 8.284 6.716 15 15 15zm120 0c8.284 0 15-6.716 15-15 0-8.286-6.716-15-15-15s-15 6.714-15 15c0 8.284 6.716 15 15 15zm-60 0c8.284 0 15-6.716 15-15 0-8.286-6.716-15-15-15s-15 6.714-15 15c0 8.284 6.716 15 15 15z" fill="url(#SVGID_1_)"/></g></g></svg>